<?xml version="1.0" encoding="UTF-8"?>
<svg width="18px" height="18px" viewBox="0 0 18 18" version="1.1" xmlns="http://www.w3.org/2000/svg" xmlns:xlink="http://www.w3.org/1999/xlink">
    <title>check-box-24px</title>
    <g id="Page-1" stroke="none" stroke-width="1" fill="none" fill-rule="evenodd">
        <g id="Presentation---Page-2-Copy-31" transform="translate(-913.000000, -446.000000)">
            <g id="check-box-24px" transform="translate(913.000000, 446.000000)">
                <polygon id="Path" points="0 0 18 0 18 18 0 18"></polygon>
                <path d="M14.25,2.25 L3.75,2.25 C2.9175,2.25 2.25,2.925 2.25,3.75 L2.25,14.25 C2.25,15.075 2.9175,15.75 3.75,15.75 L14.25,15.75 C15.0825,15.75 15.75,15.075 15.75,14.25 L15.75,3.75 C15.75,2.925 15.0825,2.25 14.25,2.25 Z M6.96966991,12.2196699 L4.27875,9.52875 C3.98672944,9.23672944 3.98672944,8.76327056 4.27875,8.47125 C4.57088978,8.17911022 5.04443999,8.17877999 5.33698693,8.47051204 L7.5,10.6275 L7.5,10.6275 L12.6618717,5.46562831 C12.9538959,5.1736041 13.4273607,5.1736041 13.7193849,5.46562831 C13.7200077,5.46625111 13.7206294,5.46687501 13.72125,5.4675 L13.7234112,5.46967652 C14.0145387,5.76286873 14.0137022,6.23629778 13.7215406,6.52845944 L8.03033009,12.2196699 C7.73743687,12.5125631 7.26256313,12.5125631 6.96966991,12.2196699 Z" id="Shape" fill="#694CE0" fill-rule="nonzero"></path>
            </g>
        </g>
    </g>
</svg>