<?xml version="1.0" encoding="UTF-8"?>
<svg width="16px" height="15px" viewBox="0 0 16 15" version="1.1" xmlns="http://www.w3.org/2000/svg" xmlns:xlink="http://www.w3.org/1999/xlink">
    <title>checkmark-black</title>
    <g id="Page-1" stroke="none" stroke-width="1" fill="none" fill-rule="evenodd">
        <g id="checkmark-black" transform="translate(1.000000, 0.000000)">
            <g id="Path-4" transform="translate(0.000000, 4.000000)" fill="#012D3E" fill-rule="nonzero" stroke="#FFFFFF">
                <path d="M3.97553818,9.86771019 L0.502538176,6.39371019 C0.180783226,6.07223073 3.01980663e-14,5.63604564 3.01980663e-14,5.18121019 C3.01980663e-14,4.72637474 0.180783226,4.29018964 0.502538176,3.96871019 L0.502538176,3.96871019 C1.17247255,3.29976327 2.2576038,3.29976327 2.92753818,3.96871019 L5.10253818,6.14171019 C5.19381394,6.23247728 5.34126241,6.23247728 5.43253818,6.14171019 L11.0725382,0.501710187 C11.7424725,-0.167236729 12.8276038,-0.167236729 13.4975382,0.501710187 L13.4975382,0.501710187 C13.8192931,0.823189642 14.0000764,1.25937474 14.0000764,1.71421019 C14.0000764,2.16904564 13.8192931,2.60523073 13.4975382,2.92671019 L6.55753818,9.86771019 C5.84448133,10.5805716 4.68859503,10.5805716 3.97553818,9.86771019 Z" id="Path"></path>
            </g>
            <rect id="Rectangle" x="0" y="0" width="14" height="14"></rect>
        </g>
    </g>
</svg>