<svg width="22" height="22" viewBox="0 0 22 22" fill="none" xmlns="http://www.w3.org/2000/svg">
<path fill-rule="evenodd" clip-rule="evenodd" d="M16.3034 15.91C15.8409 16.3724 15.0911 16.3724 14.6287 15.91L11.0001 12.2814L7.37151 15.91C6.90907 16.3724 6.15923 16.3724 5.69679 15.91C5.23434 15.4475 5.23434 14.6977 5.69679 14.2353L9.32536 10.6067L5.69679 6.97811C5.23434 6.51567 5.23434 5.76583 5.69679 5.30339C6.15924 4.84094 6.90907 4.84094 7.37151 5.30339L11.0001 8.93196L14.6287 5.30339C15.0911 4.84093 15.8409 4.84094 16.3034 5.30339C16.7658 5.76584 16.7658 6.51566 16.3034 6.97811L12.6748 10.6067L16.3034 14.2353C16.7658 14.6977 16.7658 15.4475 16.3034 15.91Z" fill="#012D3E"/>
</svg>
