<svg width="17" height="17" viewBox="0 0 17 17" fill="none" xmlns="http://www.w3.org/2000/svg">
<path d="M5.9587 15.7059C3.64418 15.163 1.83698 13.3559 1.29407 11.0413C0.901977 9.36976 0.901977 7.63026 1.29407 5.9587C1.83698 3.64418 3.64418 1.83698 5.95871 1.29407C7.63026 0.901977 9.36976 0.901977 11.0413 1.29407C13.3559 1.83698 15.163 3.64418 15.7059 5.9587C16.098 7.63026 16.098 9.36976 15.7059 11.0413C15.163 13.3559 13.3559 15.163 11.0413 15.7059C9.36976 16.098 7.63026 16.098 5.9587 15.7059Z" stroke="#012D3E" stroke-width="1.5"/>
<path d="M8.83342 11.4167C8.83342 11.6008 8.68418 11.75 8.50008 11.75C8.31599 11.75 8.16675 11.6008 8.16675 11.4167C8.16675 11.2326 8.31599 11.0833 8.50008 11.0833C8.68418 11.0833 8.83342 11.2326 8.83342 11.4167Z" fill="#363853" stroke="#012D3E"/>
<path d="M6.83325 6.83334V6.41667C6.83325 5.4962 7.57942 4.75 8.49992 4.75C9.42042 4.75 10.1666 5.4962 10.1666 6.41667V6.51777C10.1666 6.98659 9.98034 7.43626 9.64884 7.76776L8.49992 8.91668" stroke="#012D3E" stroke-width="1.5" stroke-linecap="round" stroke-linejoin="round"/>
</svg>
